<svg width="8" height="12" viewBox="0 0 8 12" fill="none" xmlns="http://www.w3.org/2000/svg">
<path opacity="0.4" d="M0 3.59918C0 2.56851 0.377385 1.70961 1.13215 1.02249C1.88692 0.340832 2.83038 0 3.96254 0C5.03365 0 5.94103 0.313565 6.6847 0.940695C7.42837 1.56783 7.80021 2.33401 7.80021 3.23926C7.80021 3.89366 7.61429 4.52624 7.24246 5.13701C6.88172 5.73688 6.19632 6.54942 5.18626 7.57464L2.14776 10.6585V10.6912H8V12H0.074922V10.9857L4.30385 6.60941C5.10857 5.77505 5.64412 5.14247 5.91051 4.71166C6.17135 4.28085 6.30177 3.82004 6.30177 3.32924C6.30177 2.7621 6.07145 2.27948 5.61082 1.88139C5.14464 1.4833 4.58134 1.28425 3.92092 1.28425C3.21609 1.28425 2.62782 1.50511 2.15609 1.94683C1.68436 2.38855 1.44849 2.93933 1.44849 3.59918V3.60736H0V3.59918Z" fill="white"/>
</svg>
