<svg width="16" height="12" viewBox="0 0 16 12" fill="none" xmlns="http://www.w3.org/2000/svg">
<g opacity="0.4">
<path d="M2.37285 5.22334H3.65969C4.2746 5.22334 4.77793 5.03018 5.16969 4.64386C5.56144 4.26291 5.75732 3.77733 5.75732 3.18712C5.75732 2.59691 5.58128 2.13011 5.2292 1.78672C4.85728 1.4326 4.33907 1.25553 3.67457 1.25553C3.05966 1.25553 2.55881 1.4326 2.17201 1.78672C1.78522 2.14085 1.56206 2.62374 1.50256 3.23541H0.215714C0.290098 2.24816 0.642182 1.46211 1.27197 0.877264C1.90671 0.292421 2.72741 0 3.73408 0C4.70107 0 5.50194 0.28169 6.13668 0.84507C6.78134 1.40845 7.10367 2.12475 7.10367 2.99396C7.10367 3.71831 6.90532 4.3273 6.5086 4.82093C6.11189 5.31455 5.57632 5.62575 4.90191 5.75453V5.78672C5.71517 5.84038 6.36231 6.11938 6.84333 6.62374C7.32435 7.13347 7.56485 7.79611 7.56485 8.61167C7.56485 9.59893 7.19789 10.4118 6.46397 11.0503C5.73997 11.6834 4.84488 12 3.77871 12C2.66791 12 1.77034 11.6968 1.08601 11.0905C0.411592 10.495 0.0495893 9.70892 0 8.73239H1.28684C1.34635 9.3387 1.5943 9.8216 2.03068 10.1811C2.47699 10.5567 3.0547 10.7445 3.76383 10.7445C4.47296 10.7445 5.05811 10.5486 5.51929 10.1569C5.97552 9.76526 6.20363 9.26626 6.20363 8.65996C6.20363 7.97854 5.98047 7.4393 5.53417 7.04225C5.09282 6.6452 4.48784 6.44668 3.7192 6.44668H2.37285V5.22334Z" fill="white"/>
<path d="M14.676 1.51308V1.48089H8.89633V0.193159H16V1.53722L11.2245 11.8068H9.81869L14.676 1.51308Z" fill="white"/>
</g>
</svg>
